0.11m3min_grf.mot
version=1
nRows=17
nColumns 19
inDegrees=yes
endheader
time	1_ground_force_vx	1_ground_force_vy	1_ground_force_vz	1_ground_force_px	1_ground_force_py	1_ground_force_pz	1_ground_torque_x	1_ground_torque_y	1_ground_torque_z	2_ground_force_vx	2_ground_force_vy	2_ground_force_vz	2_ground_force_px	2_ground_force_py	2_ground_force_pz	2_ground_torque_x	2_ground_torque_y	2_ground_torque_z
            0.005000	            8.707839	           23.973478	            0.906593	           -0.223314	            0.006535	           -0.477733	            0.126667	            0.348726	            0.013188	            5.261713	           49.328694	           12.140447	           -0.214157	            0.005696	           -0.693697	            0.013532	            0.126865	            0.031223
            0.005500	            8.159884	           25.231103	            1.876343	           -0.224656	            0.006534	           -0.477529	            0.128852	            0.398422	            0.029629	            4.692142	           51.352798	           12.007129	           -0.212173	            0.005702	           -0.693294	            0.017056	            0.186669	            0.043646
            0.006000	            6.967134	           26.673981	            1.656205	           -0.222584	            0.006551	           -0.481464	            0.013325	            0.051015	            0.003168	            4.164789	           54.665942	           11.925319	           -0.214167	            0.005697	           -0.693813	            0.003582	            0.047016	            0.010256
            0.006500	            5.818468	           29.020949	            0.797836	           -0.220288	            0.006567	           -0.485093	           -0.059549	           -0.297015	           -0.008165	            3.454003	           56.873686	           11.792718	           -0.211932	            0.005695	           -0.691092	           -0.001841	           -0.030312	           -0.006285
            0.007000	            5.678007	           31.368702	           -0.200604	           -0.222417	            0.006540	           -0.478798	           -0.076644	           -0.423428	            0.002708	            2.743259	           59.081096	           11.753974	           -0.210608	            0.005703	           -0.692011	           -0.003863	           -0.083187	           -0.016550
            0.007500	            6.179757	           32.093990	           -1.161738	           -0.220299	            0.006553	           -0.481748	           -0.028641	           -0.148746	            0.005384	            1.655118	           62.023244	           11.858801	           -0.211605	            0.005700	           -0.692311	            0.000099	            0.003695	            0.000706
            0.008000	            6.820433	           33.898147	           -1.476593	           -0.218017	            0.006567	           -0.484934	            0.050486	            0.250922	           -0.010930	            0.706801	           65.150550	           11.823442	           -0.211853	            0.005706	           -0.694192	            0.000531	            0.048983	            0.008889
            0.008500	            6.454499	           35.698767	           -1.009394	           -0.219131	            0.006573	           -0.486388	            0.090180	            0.498769	           -0.014103	            0.186300	           66.620537	           12.204342	           -0.211921	            0.005695	           -0.691074	            0.000327	            0.116882	            0.021412
            0.009000	            5.447299	           37.678546	           -0.310549	           -0.221828	            0.006560	           -0.483333	            0.054964	            0.380182	           -0.003133	           -0.479629	           69.380903	           12.073693	           -0.212004	            0.005693	           -0.690543	           -0.001102	            0.159402	            0.027739
            0.009500	            4.073532	           40.558992	            0.530638	           -0.223759	            0.006543	           -0.479563	            0.002302	            0.022916	            0.000300	           -1.382049	           72.694869	           11.381977	           -0.211481	            0.005701	           -0.692432	           -0.002018	            0.106145	            0.016619
            0.010000	            2.833897	           42.724497	           -0.053142	           -0.223755	            0.006535	           -0.477594	           -0.017058	           -0.257176	            0.000320	           -2.042120	           73.798897	           10.963845	           -0.209315	            0.005696	           -0.688680	           -0.000592	            0.021401	            0.003179
            0.010500	            2.235496	           43.629642	           -0.964916	           -0.221270	            0.006552	           -0.481640	           -0.016803	           -0.327930	            0.007253	           -2.708961	           76.745413	           10.270716	           -0.210199	            0.005697	           -0.689784	            0.004202	           -0.119033	           -0.015930
            0.011000	            2.095799	           46.156284	           -1.641592	           -0.222453	            0.006538	           -0.478254	           -0.008940	           -0.196894	            0.007003	           -3.606687	           78.769998	            9.668257	           -0.209912	            0.005690	           -0.687777	            0.002804	           -0.061244	           -0.007517
            0.011500	            2.231747	           47.961130	           -2.138619	           -0.224053	            0.006541	           -0.479025	            0.004736	            0.101772	           -0.004538	           -4.502214	           80.240473	            9.533107	           -0.208824	            0.005694	           -0.687704	           -0.002131	            0.037985	            0.004513
            0.012000	            1.956620	           49.583075	           -2.039267	           -0.220571	            0.006566	           -0.484666	            0.015246	            0.386356	           -0.015890	           -5.545725	           83.737084	            9.123677	           -0.209883	            0.005695	           -0.688922	           -0.007023	            0.106049	            0.011555
            0.012500	            0.950136	           51.381408	           -1.066061	           -0.223536	            0.006579	           -0.488053	            0.005447	            0.294556	           -0.006111	           -6.072516	           86.866908	            8.806569	           -0.210225	            0.005692	           -0.688507	           -0.006133	            0.087727	            0.008894
            0.013000	           -0.239671	           53.540040	           -0.044997	           -0.224673	            0.006569	           -0.485650	           -0.000001	            0.000147	           -0.000000	           -6.594114	           88.524566	            8.202637	           -0.209531	            0.005692	           -0.687809	           -0.004097	            0.054999	            0.005096
